<svg width="21" height="20" viewBox="0 0 21 20" fill="none" xmlns="http://www.w3.org/2000/svg">
<path d="M8 14.375C7.65482 14.375 7.375 14.6548 7.375 15C7.375 15.3452 7.65482 15.625 8 15.625H13C13.3452 15.625 13.625 15.3452 13.625 15C13.625 14.6548 13.3452 14.375 13 14.375H8Z" fill="white"/>
<path fill-rule="evenodd" clip-rule="evenodd" d="M10.4993 1.04175C9.91076 1.04175 9.53693 1.45788 9.28551 1.83106C9.03034 2.20981 8.76408 2.75549 8.4484 3.40244L6.56275 7.26641C6.38022 7.64044 6.2628 7.87944 6.16091 8.04526C6.0902 8.16036 6.05157 8.19739 6.04252 8.20525C6.01648 8.21735 5.9922 8.22122 5.96982 8.21964C5.95537 8.21162 5.91488 8.18605 5.84042 8.11721C5.70535 7.99231 5.53719 7.8021 5.2705 7.4985L5.24625 7.47089C4.76901 6.92758 4.37917 6.48376 4.05808 6.1836C3.89344 6.02968 3.72039 5.88783 3.5385 5.78616C3.35356 5.68278 3.12133 5.59971 2.85635 5.62298C2.46212 5.65761 2.11231 5.85698 1.86705 6.15331C1.57116 6.5108 1.53786 7.01057 1.54123 7.44261C1.54485 7.90933 1.60316 8.52875 1.6756 9.29841L1.87339 11.3999C2.02755 13.038 2.14829 14.3209 2.35744 15.3176C2.57051 16.333 2.89084 17.1364 3.50253 17.7622C4.12341 18.3973 4.88631 18.6879 5.82912 18.8258C6.73604 18.9584 7.88159 18.9584 9.31651 18.9584H11.6822C13.1172 18.9584 14.2627 18.9584 15.1696 18.8258C16.1124 18.6879 16.8753 18.3973 17.4963 17.7622C18.1079 17.1364 18.4283 16.333 18.6413 15.3176C18.8504 14.3209 18.9712 13.038 19.1253 11.3999L19.3232 9.29841C19.3956 8.52875 19.4539 7.90932 19.4575 7.44261C19.4608 7.01057 19.4276 6.5108 19.1317 6.15331C18.8864 5.85698 18.5366 5.65761 18.1424 5.62298C17.8774 5.59971 17.6452 5.68278 17.4603 5.78616C17.2783 5.88783 17.1053 6.02968 16.9407 6.1836C16.6196 6.48377 16.2298 6.92758 15.7525 7.4709L15.7283 7.4985C15.4616 7.8021 15.2934 7.99231 15.1583 8.11721C15.0838 8.18605 15.0433 8.21162 15.0289 8.21964C15.0065 8.22122 14.9823 8.21735 14.9563 8.20525C14.9472 8.19739 14.9085 8.16035 14.8378 8.04526C14.7359 7.87944 14.6185 7.64043 14.436 7.2664L12.5503 3.40243C12.2347 2.75548 11.9684 2.20981 11.7133 1.83106C11.4618 1.45787 11.088 1.04175 10.4993 1.04175ZM9.55018 3.99491C9.89326 3.29186 10.1218 2.82679 10.3222 2.52946C10.407 2.40353 10.4653 2.34057 10.4993 2.31025C10.5334 2.34057 10.5918 2.40353 10.6766 2.52946C10.8768 2.82679 11.1055 3.29186 11.4486 3.9949L13.3258 7.84149C13.4913 8.18081 13.6352 8.47566 13.7728 8.69966C13.9137 8.929 14.0996 9.17358 14.389 9.31925C14.6503 9.45075 14.9445 9.499 15.2358 9.453C15.5635 9.40116 15.8123 9.215 16.0069 9.035C16.1957 8.8605 16.407 8.61991 16.6467 8.34708L16.6673 8.32345C17.1748 7.74586 17.5238 7.34953 17.7943 7.09674C17.9281 6.97164 18.0161 6.90749 18.0702 6.87726C18.0983 6.88753 18.1317 6.90746 18.1639 6.94467C18.1639 6.94465 18.164 6.94466 18.1639 6.94467C18.1637 6.94481 18.1641 6.94644 18.1652 6.94996C18.173 6.97481 18.2102 7.09301 18.2076 7.43289C18.2044 7.83898 18.1518 8.40416 18.0756 9.21341L17.8846 11.2428C17.7258 12.9295 17.6108 14.1417 17.4179 15.0608C17.2273 15.9694 16.9762 16.506 16.6023 16.8884C16.2378 17.2614 15.7693 17.4748 14.9888 17.589C14.1827 17.7068 13.1286 17.7084 11.6327 17.7084H9.36609C7.87019 17.7084 6.8161 17.7068 6.01 17.589C5.22939 17.4748 4.76101 17.2614 4.39638 16.8884C4.02255 16.506 3.77145 15.9694 3.58079 15.0608C3.38791 14.1417 3.27287 12.9295 3.11413 11.2428L2.92313 9.21341C2.84697 8.40416 2.79435 7.83898 2.79119 7.43289C2.78855 7.09308 2.82562 6.97487 2.83342 6.95C2.83453 6.94647 2.83505 6.94481 2.83478 6.94468C2.86704 6.90746 2.89971 6.88712 2.92785 6.87685C2.98192 6.90708 3.07063 6.97164 3.20445 7.09674C3.47487 7.34953 3.82401 7.74586 4.33137 8.32345L4.3521 8.34708C4.59175 8.61991 4.80305 8.8605 4.9918 9.035C5.18652 9.215 5.43522 9.40116 5.76296 9.453C6.05423 9.499 6.34852 9.45075 6.60972 9.31925C6.8992 9.17358 7.08503 8.929 7.22595 8.69966C7.36356 8.47566 7.50742 8.18085 7.67298 7.84155L9.55018 3.99491ZM18.1639 6.94467C18.1655 6.94651 18.1672 6.94839 18.1688 6.95031C18.1668 6.9479 18.1648 6.94555 18.1639 6.94467C18.164 6.94466 18.1639 6.94465 18.1639 6.94467ZM10.5361 2.28421C10.5361 2.28461 10.5334 2.28619 10.5283 2.28781C10.5336 2.28463 10.5361 2.28382 10.5361 2.28421ZM10.4703 2.28781C10.4653 2.28619 10.4627 2.28461 10.4627 2.28421C10.4626 2.28382 10.4652 2.28463 10.4703 2.28781Z" fill="white"/>
</svg>
