<svg width="20" height="20" viewBox="0 0 20 20" fill="none" xmlns="http://www.w3.org/2000/svg">
<g clip-path="url(#clip0_502_1413)">
<path d="M16.6992 7.25828V3.33328H12.7826L9.99922 0.574951L7.25755 3.33328H3.33255V7.25828L0.574219 9.99995L3.33255 12.7833V16.7H7.25755L9.99922 19.4583L12.7826 16.7H16.6992V12.7833L19.4576 9.99995L16.6992 7.25828ZM7.35755 5.87495C8.17422 5.87495 8.83255 6.53328 8.83255 7.35828C8.83255 7.74948 8.67715 8.12465 8.40054 8.40127C8.12392 8.67788 7.74875 8.83329 7.35755 8.83329C6.53255 8.83329 5.87422 8.17495 5.87422 7.35828C5.87422 6.53328 6.53255 5.87495 7.35755 5.87495ZM12.6826 14.1666C11.8659 14.1666 11.2076 13.5 11.2076 12.6833C11.2076 12.2921 11.363 11.9169 11.6396 11.6403C11.9162 11.3637 12.2914 11.2083 12.6826 11.2083C13.4992 11.2083 14.1659 11.8666 14.1659 12.6833C14.1659 13.0767 14.0096 13.454 13.7314 13.7322C13.4532 14.0103 13.076 14.1666 12.6826 14.1666ZM7.08255 14.1916L5.83255 12.9416L12.9409 5.83328L14.1909 7.08328L7.08255 14.1916Z" fill="white"/>
</g>
<defs>
<clipPath id="clip0_502_1413">
<rect width="20" height="20" fill="white"/>
</clipPath>
</defs>
</svg>
