<svg width="20" height="20" viewBox="0 0 20 20" fill="none" xmlns="http://www.w3.org/2000/svg">
<path d="M9.99935 10.8334C11.8403 10.8334 13.3327 9.34103 13.3327 7.50008C13.3327 5.65913 11.8403 4.16675 9.99935 4.16675C8.1584 4.16675 6.66602 5.65913 6.66602 7.50008C6.66602 9.34103 8.1584 10.8334 9.99935 10.8334Z" fill="white"/>
<path d="M14.166 10C15.5467 10 16.666 8.88071 16.666 7.5C16.666 6.11929 15.5467 5 14.166 5C12.7853 5 11.666 6.11929 11.666 7.5C11.666 8.88071 12.7853 10 14.166 10Z" fill="white"/>
<path d="M5.83398 10C7.2147 10 8.33398 8.88071 8.33398 7.5C8.33398 6.11929 7.2147 5 5.83398 5C4.45327 5 3.33398 6.11929 3.33398 7.5C3.33398 8.88071 4.45327 10 5.83398 10Z" fill="white"/>
<path fill-rule="evenodd" clip-rule="evenodd" d="M14.6403 14.9999H16.5786C17.072 14.9999 17.4495 14.5749 17.3303 14.0966C17.0228 12.8716 16.2061 10.8333 14.1661 10.8333C13.4278 10.8333 12.8495 11.0999 12.3978 11.4999C13.6545 12.3141 14.3045 13.7416 14.6403 14.9999ZM7.60114 11.4999C7.11705 11.0623 6.48529 10.8242 5.8328 10.8333C3.7928 10.8333 2.97614 12.8716 2.66864 14.0966C2.54947 14.5749 2.92697 14.9999 3.4203 14.9999H5.35947C5.6953 13.7416 6.34447 12.3141 7.60114 11.4999Z" fill="white"/>
<path d="M9.99914 11.6667C13.09 11.6667 13.8875 14.4176 14.0941 15.8384C14.1608 16.2942 13.7925 16.6667 13.3325 16.6667H6.66581C6.20581 16.6667 5.83831 16.2942 5.90414 15.8384C6.11081 14.4176 6.90831 11.6667 9.99914 11.6667Z" fill="white"/>
</svg>
